<?xml version="1.0" encoding="utf-8"?>
<!-- Generator: Adobe Illustrator 24.2.0, SVG Export Plug-In . SVG Version: 6.00 Build 0)  -->
<svg version="1.1" id="Layer_1" xmlns="http://www.w3.org/2000/svg" xmlns:xlink="http://www.w3.org/1999/xlink" x="0px" y="0px"
	 viewBox="0 0 434.8 93.9" style="enable-background:new 0 0 434.8 93.9;" xml:space="preserve">
<style type="text/css">
	.st0{fill:#FFFFFF;}
	.st1{display:none;fill:none;}
	.st2{enable-background:new    ;}
	.st3{display:none;}
</style>
<g id="Layer_1_1_">
	<path d="M77.7,91.2H18c-6.6,0-12-5.4-12-12V15.8c0-6.6,5.4-12,12-12h59.8c6.6,0,12,5.4,12,12v63.4C89.7,85.9,84.4,91.2,77.7,91.2z"
		/>
	<path class="st0" d="M67.6,34H41.6c-1.1,0-2-0.9-2-2v-9.1c0-1.1,0.9-2,2-2h26.1c1.1,0,2,0.9,2,2V32C69.6,33.1,68.7,34,67.6,34z"/>
	<path class="st0" d="M34.5,34h-8.1c-1.1,0-2-0.9-2-2v-9.1c0-1.1,0.9-2,2-2h8.1c1.1,0,2,0.9,2,2V32C36.5,33.1,35.6,34,34.5,34z"/>
	<path id="middle" class="st0" d="M67.6,53.2H32.5c-1.1,0-2-0.9-2-2v-9.1c0-1.1,0.9-2,2-2h35.1c1.1,0,2,0.9,2,2v9.1
		C69.6,52.3,68.7,53.2,67.6,53.2z"/>
	<path class="st0" d="M26.5,72.3h26.1c1.1,0,2-0.9,2-2v-9.1c0-1.1-0.9-2-2-2H26.5c-1.1,0-2,0.9-2,2v9.1
		C24.5,71.4,25.4,72.3,26.5,72.3z"/>
	<path class="st0" d="M59.6,72.3h8.1c1.1,0,2-0.9,2-2v-9.1c0-1.1-0.9-2-2-2h-8.1c-1.1,0-2,0.9-2,2v9.1
		C57.6,71.4,58.5,72.3,59.6,72.3z"/>
	<rect x="86.5" y="20.8" class="st1" width="352.1" height="66.8"/>
	<g class="st2">
		<path d="M138.4,33h-17.7v8.3h17.4v9.4h-17.4v9.6h17.7v9.4h-28.3V23.6h28.3V33z"/>
		<path d="M171.7,36.8l10.5,0.1v33h-10.6v-6.3h-0.1c-2.2,4.7-5.9,7-11.2,7c-4.5,0-8.3-1.6-11.4-4.9s-4.6-7.3-4.6-12.3
			c0-4.9,1.5-9,4.6-12.3c3-3.3,6.8-4.9,11.4-4.9c5.4,0,9.2,2.3,11.3,7h0.1V36.8z M157.6,59.3c1.6,1.6,3.6,2.3,6,2.3
			c2.5,0,4.5-0.8,6.1-2.3c1.6-1.5,2.4-3.5,2.4-5.9c0-2.4-0.8-4.4-2.4-6c-1.6-1.6-3.6-2.3-6.1-2.3c-2.5,0-4.5,0.8-6,2.3
			c-1.6,1.5-2.3,3.5-2.3,5.9S156,57.7,157.6,59.3z"/>
		<path d="M205.2,70.4l0.1,0.1c-5.1,0-9.3-1.2-12.6-3.6c-3.3-2.4-5.1-5.5-5.4-9.5H198c0.2,1.7,0.9,3,2.3,4c1.3,1,3.1,1.5,5.2,1.5
			c1.8,0,3.2-0.3,4.3-1c1-0.7,1.6-1.6,1.6-2.7c0-1.6-1-2.6-3-2.8l-7.8-0.9c-1.1-0.1-1.9-0.3-2.5-0.4c-0.6-0.1-1.5-0.4-2.6-0.8
			c-1.1-0.4-2-0.9-2.7-1.4c-0.7-0.6-1.3-1.3-1.8-2.4c-0.6-1-0.8-2.2-0.8-3.6c0-3.3,1.3-5.9,3.9-7.9c2.6-1.9,6.2-2.9,10.8-2.9
			c4.4,0,7.8,0.9,10.4,2.7c2.6,1.8,4.1,4.3,4.6,7.5H209c-0.7-1.8-2.3-2.8-4.8-2.8c-1.3,0-2.3,0.3-3,0.8c-0.7,0.5-1.1,1.2-1.1,2.1
			c0,1.5,1,2.3,3,2.4l7.7,0.9c7.3,0.8,10.9,3.7,10.9,8.8c0,3.6-1.5,6.4-4.5,8.6C214.1,69.3,210.1,70.4,205.2,70.4z"/>
		<path d="M250.8,36.8h10.4v34.5c0,4.9-1.8,8.9-5.3,11.8c-3.5,3-8.2,4.5-13.8,4.5c-5.8,0-10.5-1.5-14-4.6c-3.5-3-5.3-7-5.2-11.7
			h10.4c0,2.3,0.7,4.2,2.3,5.5c1.6,1.4,3.8,2,6.5,2c2.7,0,4.9-0.7,6.4-2c1.6-1.4,2.3-3.2,2.3-5.6v-7.7h-0.1
			c-1.9,4.2-5.5,6.3-10.8,6.3c-3.9,0-6.9-1.2-9.1-3.5s-3.3-5.5-3.3-9.5V36.8h10.7v17.9c0,1.9,0.5,3.5,1.6,4.6c1,1.1,2.5,1.7,4.3,1.7
			c2.1,0,3.7-0.7,4.9-2s1.8-3.2,1.8-5.4V36.8z"/>
		<path d="M276.6,69.8l-10.8-46.2h11.5l5.8,32.6h0.3l7.4-31.5h11.1l7.5,31.5h0.3l5.8-32.7h11.2l-10.9,46.2h-11.4l-8.1-31.9H296
			l-7.7,31.9H276.6z"/>
		<path d="M354.8,56.2h10.7c-0.3,4.3-2.1,7.7-5.5,10.3c-3.4,2.6-7.5,3.9-12.5,3.9c-5.5,0-10-1.6-13.4-4.8c-3.4-3.2-5.1-7.3-5.1-12.4
			c0-5,1.7-9.1,5.1-12.3c3.4-3.2,7.8-4.8,13.2-4.8c5.5,0,9.8,1.6,13,4.7c3.2,3.1,4.6,7.4,4.4,12.7h-25.6c0.2,2.6,1,4.6,2.4,6.1
			c1.5,1.5,3.4,2.2,5.7,2.2c2,0,3.7-0.5,5.1-1.6S354.6,57.8,354.8,56.2z M347.2,43.5L347.2,43.5c-3.5,0-5.9,1.4-7.2,4.2h14
			C352.9,44.9,350.6,43.5,347.2,43.5z"/>
		<path d="M393.1,36.1L393.1,36.1c4.5,0,8.2,1.6,11.3,4.9c3,3.3,4.6,7.3,4.6,12.3c0,4.9-1.5,9-4.6,12.3s-6.8,4.9-11.4,4.9
			c-5.3,0-9.1-2.3-11.2-7h-0.1v6.3h-10.6V22.2h10.6v20.9h0.1C383.9,38.4,387.7,36.1,393.1,36.1z M383.7,59.3
			c1.6,1.5,3.6,2.3,6.1,2.3c2.5,0,4.5-0.8,6-2.3c1.6-1.6,2.3-3.6,2.3-6s-0.8-4.4-2.3-5.9c-1.6-1.5-3.6-2.3-6-2.3
			c-2.5,0-4.5,0.8-6.1,2.3c-1.6,1.6-2.4,3.6-2.4,6S382.1,57.7,383.7,59.3z"/>
		<path d="M427,68.5c-1.4,1.3-3.2,1.9-5.4,1.9c-2.2,0-3.9-0.6-5.4-1.9c-1.4-1.3-2.1-2.9-2.1-4.8s0.7-3.5,2.1-4.8
			c1.4-1.3,3.2-1.9,5.4-1.9c2.2,0,3.9,0.6,5.4,1.9c1.4,1.3,2.1,2.9,2.1,4.8S428.4,67.2,427,68.5z"/>
	</g>
</g>
<g id="Layer_2_1_" class="st3">
	
		<image style="display:inline;overflow:visible;enable-background:new    ;" width="450" height="84" xlink:href="C2FEB380F9E6F304.jpg"  transform="matrix(1 0 0 1 2.5753 7.0602)">
	</image>
</g>
<g id="Layer_3">
</g>
</svg>
